<svg width="40" height="50" viewBox="0 0 40 50" fill="none" xmlns="http://www.w3.org/2000/svg">
<path fill-rule="evenodd" clip-rule="evenodd" d="M32.074 15.418C32.5255 15.3437 32.987 15.489 33.3159 15.8086C37.1398 19.5268 39.2457 24.5032 39.2457 29.821C39.2457 40.6047 30.4729 49.378 19.6897 49.378C10.7698 49.378 2.9885 43.339 0.766962 34.6924C0.345994 33.0519 0.132568 31.4131 0.132568 29.821C0.132568 26.6958 0.862632 23.6915 2.30251 20.8919C3.71953 18.1396 5.80315 15.7295 8.32838 13.9215C8.34304 13.911 8.35799 13.9008 8.37303 13.8908C8.4661 13.8294 8.56549 13.7567 8.67075 13.6796L8.68155 13.6717C8.69225 13.6639 8.70296 13.6561 8.71367 13.6482C8.75573 13.6174 8.79784 13.5866 8.84019 13.5561C12.8554 10.6829 15.3771 6.22884 15.7627 1.33308C15.8007 0.849904 16.0781 0.417941 16.5018 0.182334C16.9255 -0.0531764 17.4386 -0.0609882 17.8692 0.161503C22.8152 2.71788 26.4462 7.27389 27.8309 12.6612C28.2521 14.3014 28.4655 15.9402 28.4655 17.5328C28.4655 18.3628 28.4114 19.1905 28.3039 20.0134C29.3825 18.8743 30.2993 17.5857 31.021 16.1836C31.2309 15.776 31.6216 15.492 32.074 15.418ZM18.941 35.9114C22.2465 35.9114 24.9262 33.2317 24.9262 29.9261C24.9262 26.6206 22.2465 23.9409 18.941 23.9409C15.6354 23.9409 12.9557 26.6206 12.9557 29.9261C12.9557 33.2317 15.6354 35.9114 18.941 35.9114Z" fill="#6359E9"/>
</svg>
