<svg width="22" height="19" viewBox="0 0 22 19" fill="none" xmlns="http://www.w3.org/2000/svg">
<path d="M20.9844 16.2936C21.6609 17.4663 20.8117 18.9321 19.4605 18.9321H1.87209C0.518302 18.9321 -0.326949 17.464 0.34824 16.2936L9.14256 1.04571C9.8194 -0.127463 11.5146 -0.125338 12.1903 1.04571L20.9844 16.2936ZM10.6664 13.1412C9.73528 13.1412 8.98045 13.896 8.98045 14.8271C8.98045 15.7582 9.73528 16.5131 10.6664 16.5131C11.5975 16.5131 12.3524 15.7582 12.3524 14.8271C12.3524 13.896 11.5975 13.1412 10.6664 13.1412ZM9.06574 7.08103L9.33762 12.0656C9.35033 12.2988 9.54319 12.4814 9.77677 12.4814H11.556C11.7896 12.4814 11.9825 12.2988 11.9952 12.0656L12.2671 7.08103C12.2808 6.82909 12.0802 6.61724 11.8279 6.61724H9.50486C9.25255 6.61724 9.05199 6.82909 9.06574 7.08103Z" fill="white"/>
</svg>
